<?xml version="1.0" encoding="UTF-8" standalone="no"?>
<!-- Created with Inkscape (http://www.inkscape.org/) -->

<svg
   xmlns:dc="http://purl.org/dc/elements/1.1/"
   xmlns:cc="http://creativecommons.org/ns#"
   xmlns:rdf="http://www.w3.org/1999/02/22-rdf-syntax-ns#"
   xmlns:svg="http://www.w3.org/2000/svg"
   xmlns="http://www.w3.org/2000/svg"
   xmlns:sodipodi="http://sodipodi.sourceforge.net/DTD/sodipodi-0.dtd"
   xmlns:inkscape="http://www.inkscape.org/namespaces/inkscape"
   width="2183.6736mm"
   height="2183.665mm"
   viewBox="0 0 2183.6735 2183.6651"
   version="1.1"
   id="svg8"
   inkscape:version="0.92.3 (2405546, 2018-03-11)"
   sodipodi:docname="login_bg.svg">
  <defs
     id="defs2" />
  <sodipodi:namedview
     id="base"
     pagecolor="#ffffff"
     bordercolor="#666666"
     borderopacity="1.0"
     inkscape:pageopacity="0.0"
     inkscape:pageshadow="2"
     inkscape:zoom="0.04"
     inkscape:cx="6752.3747"
     inkscape:cy="516.73224"
     inkscape:document-units="mm"
     inkscape:current-layer="layer1"
     showgrid="false"
     fit-margin-top="0"
     fit-margin-left="0"
     fit-margin-right="0"
     fit-margin-bottom="0"
     inkscape:window-width="2560"
     inkscape:window-height="1403"
     inkscape:window-x="0"
     inkscape:window-y="0"
     inkscape:window-maximized="1" />
  <metadata
     id="metadata5">
    <rdf:RDF>
      <cc:Work
         rdf:about="">
        <dc:format>image/svg+xml</dc:format>
        <dc:type
           rdf:resource="http://purl.org/dc/dcmitype/StillImage" />
        <dc:title></dc:title>
      </cc:Work>
    </rdf:RDF>
  </metadata>
  <g
     inkscape:label="Layer 1"
     inkscape:groupmode="layer"
     id="layer1"
     transform="translate(-1010.3118,650.02389)">
    <path
       style="opacity:1;fill:#ffffff;fill-opacity:1;stroke:none;stroke-width:1.40670216;stroke-miterlimit:4;stroke-dasharray:none;stroke-dashoffset:0;stroke-opacity:1"
       d="m 1010.8202,-650.02389 v 3.72368 h 2183.13 v -3.72368 z m -0.4655,6.89769 v 2.10191 h 2183.1295 v -2.10191 z m 0.045,5.41857 v 2.10192 h 2183.1301 v -2.10192 z m 0.4225,7.15465 v 3.72367 h 2183.1301 v -3.72367 z m -0.4874,9.33897 v 2.10165 h 2183.1294 v -2.10165 z m 0.026,7.90839 v 2.10192 h 2183.1301 v -2.10192 z m 0.4587,8.87488 v 3.72367 H 3193.949 v -3.72367 z m -0.4186,9.89206 v 2.10192 H 3193.531 v -2.10192 z m -0.02,5.93082 v 2.10192 h 2183.1295 v -2.10192 z m 0.4745,6.01502 v 3.72367 h 2183.1301 v -3.72367 z m -0.084,8.88729 v 3.72395 h 2183.1295 v -3.72395 z m -0.3926,11.98157 v 2.10192 h 2183.1295 v -2.10192 z m -0.028,9.33674 v 2.10192 h 2183.1301 v -2.10192 z m 0.4728,8.08709 v 3.72367 h 2183.1301 v -3.72367 z m -0.4247,10.2346 v 2.10191 h 2183.1294 v -2.10191 z m -0.023,8.27118 v 2.10192 h 2183.13 v -2.10192 z m 0.4502,9.07977 v 3.72395 h 2183.13 v -3.72395 z m -0.4711,10.08095 v 2.10192 h 2183.13 v -2.10192 z m 0.023,9.55063 v 2.10192 h 2183.1301 v -2.10192 z m 0.3983,10.61035 v 3.72394 h 2183.1295 v -3.72394 z m 0.025,11.33931 v 2.10192 h 2183.13 v -2.10192 z m -0.4824,10.52789 v 2.10192 h 2183.13 v -2.10192 z m 0.501,8.47521 v 3.72395 H 3193.95 v -3.72395 z m -0.4598,10.56281 v 2.10186 H 3193.491 v -2.10186 z m -0.027,7.93001 v 2.10192 h 2183.13 v -2.10192 z m 0.488,7.72403 v 3.72362 h 2183.1301 v -3.72362 z m -0.4225,8.77858 v 2.10192 h 2183.1301 v -2.10192 z m -0.045,5.41917 v 2.10192 h 2183.1295 v -2.10192 z m 0.4655,5.27647 v 3.72368 h 2183.13 v -3.72368 z m -0.4209,10.21461 v 2.10192 h 2183.1301 v -2.10192 z m 0,5.18781 v 2.10191 h 2183.1301 v -2.10191 z m 0.4209,8.29536 v 3.72395 h 2183.13 v -3.72395 z m 0,11.0964 v 3.724 h 2183.13 v -3.724 z m -0.4655,6.89796 v 2.10191 h 2183.1295 v -2.10191 z m 0.045,5.41857 v 2.10164 h 2183.1301 v -2.10164 z m 0.4225,7.15437 v 3.72368 h 2183.1301 v -3.72368 z m -0.4874,9.33898 v 2.10191 h 2183.1294 v -2.10191 z m 0.026,7.90837 v 2.10193 h 2183.1301 v -2.10193 z m 0.4587,8.87489 v 3.72366 h 2183.1295 v -3.72366 z m -0.4185,9.89206 v 2.10192 h 2183.13 v -2.10192 z m -0.02,5.93114 v 2.10163 h 2183.1295 v -2.10163 z m 0.4745,6.01472 v 3.72366 h 2183.1301 v -3.72366 z m -0.084,8.88755 v 3.72367 h 2183.1295 v -3.72367 z m -0.3926,11.98132 v 2.1019 h 2183.1295 v -2.1019 z m -0.028,9.33704 v 2.1019 h 2183.1301 v -2.1019 z m 0.4728,8.08708 v 3.72367 h 2183.1301 v -3.72367 z m -0.4247,10.23459 v 2.10192 h 2183.1294 v -2.10192 z m -0.023,8.27116 v 2.10192 h 2183.13 v -2.10192 z m 0.4502,9.07979 v 3.72395 h 2183.13 v -3.72395 z m -0.4711,10.08092 v 2.10192 h 2183.13 v -2.10192 z m 0.023,9.55066 v 2.10192 h 2183.1301 v -2.10192 z m 0.3983,10.61035 v 3.72395 h 2183.1295 v -3.72395 z m 0.025,11.33931 v 2.10191 h 2183.13 v -2.10191 z m -0.4824,10.52787 v 2.10191 h 2183.13 v -2.10191 z m 0.501,8.47521 v 3.72395 H 3193.949 v -3.72395 z m -0.4598,10.56278 v 2.10192 H 3193.491 v -2.10192 z m -0.027,7.93004 v 2.10191 h 2183.13 v -2.10191 z m 0.488,7.724 v 3.72367 h 2183.1301 v -3.72367 z m -0.4225,8.77863 v 2.10191 h 2183.1301 v -2.10191 z m -0.045,5.41916 v 2.10191 h 2183.1295 v -2.10191 z m 0.4655,5.27646 v 3.72367 h 2183.13 v -3.72367 z m -0.4209,10.21462 v 2.10192 h 2183.1301 v -2.10192 z m 0,5.1878 v 2.10192 h 2183.1301 v -2.10192 z m 0.4209,8.29537 v 3.72395 h 2183.13 v -3.72395 z m 0,9.5622 v 3.723945 h 2183.13 v -3.723945 z m -0.4655,6.897928 v 2.101918 h 2183.1295 v -2.101918 z m 0.045,5.418599 v 2.101636 h 2183.1301 v -2.101636 z m 0.4225,7.154338 v 3.72395 h 2183.1301 v -3.72395 z m -0.4874,9.339006 v 2.101918 h 2183.1294 v -2.101918 z m 0.026,7.908364 v 2.101913 h 2183.1301 v -2.101913 z m 0.4587,8.875163 v 3.723667 h 2183.1295 v -3.723667 z m -0.4185,9.892066 v 2.101913 h 2183.13 v -2.101913 z m -0.02,5.93085 v 2.101913 h 2183.1295 v -2.101913 z m 0.4745,6.01472 v 3.72395 h 2183.1301 v -3.72395 z m -0.084,8.887549 v 3.723667 h 2183.1295 v -3.723667 z m -0.3926,11.981599 v 2.101919 h 2183.1295 v -2.101919 z m -0.028,9.3364728 v 2.1019128 h 2183.1301 v -2.1019128 z m 0.4728,8.0870859 v 3.7236666 h 2183.132 V 2.9237007 Z m -0.4247,10.2348803 v 2.101913 h 2183.1294 v -2.101913 z m -0.023,8.271156 v 2.101919 h 2183.13 v -2.101919 z m 0.4502,9.079784 v 3.723667 h 2183.13 v -3.723667 z m -0.4711,10.080924 v 2.101918 h 2183.13 v -2.101918 z m 0.023,9.550379 v 2.101913 h 2183.1301 v -2.101913 z m 0.3983,10.610624 v 3.723667 h 2183.1295 v -3.723667 z m 0.025,11.339313 v 2.101919 h 2183.13 v -2.101919 z m -0.4824,10.527876 v 2.101635 h 2183.13 v -2.101635 z m 0.501,8.475215 v 3.72395 H 3193.948 v -3.72395 z m -0.4598,10.562778 v 2.10192 H 3193.491 v -2.10192 z m -0.027,7.92975 v 2.10192 h 2183.13 v -2.10192 z m 0.488,7.72429 v 3.72367 h 2183.1301 v -3.72367 z m -0.4225,8.77862 v 2.10164 h 2183.1301 v -2.10164 z m -0.045,5.41917 v 2.10191 h 2183.1295 v -2.10191 z m 0.4655,5.27618 v 3.72394 h 2183.13 v -3.72394 z m -0.4209,10.21489 v 2.10193 h 2183.1301 v -2.10193 z m 0,5.18753 v 2.10191 h 2183.1301 v -2.10191 z m 0.4209,8.29565 v 3.72366 h 2183.13 v -3.72366 z m 0,11.09641 v 3.72367 h 2183.13 v -3.72367 z m -0.4655,6.89793 v 2.10164 h 2183.1295 v -2.10164 z m 0.045,5.41832 v 2.10192 h 2183.1301 v -2.10192 z m 0.4225,7.15463 v 3.72366 H 3193.9519 V 191.05 Z m -0.4874,9.33871 v 2.10192 h 2183.1294 v -2.10192 z m 0.026,7.90865 v 2.10191 h 2183.1301 v -2.10191 z m 0.4587,8.87488 v 3.72367 h 2183.1295 v -3.72367 z m -0.4185,9.89207 v 2.10191 h 2183.13 v -2.10191 z m -0.02,5.93084 v 2.10193 h 2183.1295 v -2.10193 z m 0.4745,6.01502 v 3.72366 h 2183.1301 v -3.72366 z m -0.084,8.88725 v 3.72395 h 2183.1295 v -3.72395 z m -0.3926,11.98161 v 2.10191 h 2183.1295 v -2.10191 z m -0.028,9.33675 v 2.10191 h 2183.1301 v -2.10191 z m 0.4728,8.08708 v 3.72368 h 2183.1301 v -3.72368 z m -0.4247,10.23489 v 2.10191 h 2183.1294 v -2.10191 z m -0.023,8.27115 v 2.10192 h 2183.13 v -2.10192 z m 0.4502,9.07979 v 3.72366 h 2183.13 v -3.72366 z m -0.4711,10.08091 v 2.10193 h 2183.13 v -2.10193 z m 0.023,9.55039 v 2.10191 h 2183.1301 v -2.10191 z m 0.3983,10.61062 v 3.72368 h 2183.1295 v -3.72368 z m 0.025,11.33931 v 2.10193 h 2183.13 v -2.10193 z m -0.4824,10.52789 v 2.10191 h 2183.13 v -2.10191 z m 0.501,8.47521 v 3.72395 H 3193.947 v -3.72395 z m -0.4598,10.56277 v 2.10192 H 3193.491 v -2.10192 z m -0.027,7.92975 v 2.10192 h 2183.13 v -2.10192 z m 0.488,7.72402 v 3.72394 h 2183.1301 v -3.72394 z m -0.4225,8.7789 v 2.10192 h 2183.1301 v -2.10192 z m -0.045,5.41915 v 2.10193 h 2183.1295 v -2.10193 z m 0.4655,5.27619 v 3.72395 h 2183.13 v -3.72395 z m -0.4209,10.2149 v 2.10191 h 2183.1301 v -2.10191 z m 0,5.18752 v 2.10192 h 2183.1301 v -2.10192 z m 0.4209,8.29564 v 3.72368 h 2183.13 v -3.72368 z m 0,10.16987 v 3.72368 h 2183.13 v -3.72368 z m -0.4655,6.89764 v 2.10193 h 2183.1295 v -2.10193 z m 0.045,5.41861 v 2.10191 h 2183.1301 v -2.10191 z m 0.4225,7.15462 v 3.72367 h 2183.1301 v -3.72367 z m -0.4874,9.33901 v 2.10164 h 2183.1294 v -2.10164 z m 0.026,7.90836 v 2.10191 h 2183.1301 v -2.10191 z m 0.4587,8.87487 v 3.72368 h 2183.1295 v -3.72368 z m -0.4185,9.89208 v 2.10191 h 2183.13 v -2.10191 z m -0.02,5.93085 v 2.1019 h 2183.1295 v -2.1019 z m 0.4745,6.01499 v 3.72368 h 2183.1301 v -3.72368 z m -0.084,8.88728 v 3.72395 h 2183.1295 v -3.72395 z m -0.3926,11.98159 v 2.10192 h 2183.1295 v -2.10192 z m -0.028,9.33677 v 2.1019 h 2183.1301 v -2.1019 z m 0.4728,8.08708 v 3.72366 h 2183.1301 v -3.72366 z m -0.4247,10.23459 v 2.10192 h 2183.1294 v -2.10192 z m -0.023,8.27116 v 2.10192 h 2183.13 v -2.10192 z m 0.4502,9.07979 v 3.72395 h 2183.13 v -3.72395 z m -0.4711,10.08092 v 2.10192 h 2183.13 v -2.10192 z m 0.023,9.55066 v 2.10192 h 2183.1301 v -2.10192 z m 0.3983,10.61035 v 3.72395 h 2183.1295 v -3.72395 z m 0.025,11.33931 v 2.10191 h 2183.13 v -2.10191 z m -0.4824,10.52787 v 2.10191 h 2183.13 v -2.10191 z m 0.501,8.47521 v 3.72395 H 3193.946 v -3.72395 z m -0.4598,10.56278 v 2.10192 H 3193.491 v -2.10192 z m -0.027,7.93003 v 2.10193 h 2183.13 v -2.10193 z m 0.4881,7.72401 v 3.72367 h 2183.13 v -3.72367 z m -0.4226,8.77863 v 2.10191 h 2183.1301 v -2.10191 z m -0.045,5.41916 v 2.10191 h 2183.1295 v -2.10191 z m 0.4655,5.27646 v 3.72367 h 2183.13 v -3.72367 z m -0.4209,10.21462 v 2.10192 h 2183.1301 v -2.10192 z m 0,5.1878 v 2.10193 h 2183.1301 v -2.10193 z m 0.4209,8.29537 v 3.72395 h 2183.13 v -3.72395 z m 0,11.09641 v 3.72395 h 2183.13 v -3.72395 z m -0.4655,6.89794 v 2.10192 h 2183.1295 v -2.10192 z m 0.045,5.4186 v 2.10164 h 2183.1301 v -2.10164 z m 0.4226,7.15434 v 3.72366 h 2183.13 v -3.72366 z m -0.4875,9.33902 v 2.10186 h 2183.1294 v -2.10186 z m 0.026,7.90834 v 2.10191 h 2183.1301 v -2.10191 z m 0.4587,8.87487 v 3.72367 h 2183.1295 v -3.72367 z m -0.4185,9.89207 v 2.10192 h 2183.13 v -2.10192 z m -0.02,5.93114 v 2.10165 h 2183.1295 v -2.10165 z m 0.4745,6.01475 v 3.72362 h 2183.1301 v -3.72362 z m -0.084,8.88751 v 3.72367 h 2183.1295 v -3.72367 z m -0.3926,11.98135 v 2.10192 h 2183.1295 v -2.10192 z m -0.028,9.33701 v 2.10192 h 2183.1301 v -2.10192 z m 0.4728,8.08709 v 3.72367 h 2183.1301 v -3.72367 z m -0.4247,10.2346 v 2.10192 h 2183.1294 v -2.10192 z m -0.023,8.27113 v 2.10197 h 2183.13 v -2.10197 z m 0.4502,9.07982 v 3.72395 h 2183.13 v -3.72395 z m -0.4711,10.0809 v 2.10192 h 2183.13 v -2.10192 z m 0.023,9.55068 v 2.10192 h 2183.1301 v -2.10192 z m 0.3983,10.61035 v 3.72395 h 2183.1295 v -3.72395 z m 0.025,11.33931 v 2.10192 h 2183.13 v -2.10192 z m -0.4824,10.5279 v 2.10186 h 2183.13 v -2.10186 z m 0.501,8.47521 v 3.72394 H 3193.945 v -3.72394 z m -0.4598,10.56275 v 2.10191 H 3193.491 v -2.10191 z m -0.027,7.93001 v 2.10192 h 2183.13 v -2.10192 z m 0.4881,7.72403 v 3.72367 h 2183.13 v -3.72367 z m -0.4226,8.77863 v 2.10192 h 2183.1301 v -2.10192 z m -0.045,5.41917 v 2.10192 h 2183.1295 v -2.10192 z m 0.4655,5.27648 v 3.72361 h 2183.13 v -3.72361 z m -0.4209,10.2146 v 2.10187 h 2183.1301 v -2.10187 z m 0,5.18781 v 2.10186 h 2183.1301 v -2.10186 z m 0.4209,8.29531 v 3.724 h 2183.13 v -3.724 z m 0,9.56223 v 3.72394 h 2183.13 v -3.72394 z m -0.4655,6.89795 v 2.10189 h 2183.1295 v -2.10189 z m 0.045,5.41859 v 2.1016 h 2183.1301 v -2.1016 z m 0.4226,7.1543 v 3.7239 h 2183.13 v -3.7239 z m -0.4875,9.339 v 2.1019 h 2183.1294 v -2.1019 z m 0.026,7.9084 v 2.1019 h 2183.1301 v -2.1019 z m 0.4587,8.8752 v 3.7236 h 2183.1295 v -3.7236 z m -0.4185,9.892 v 2.102 h 2183.13 v -2.102 z m -0.02,5.9309 v 2.1019 h 2183.1295 v -2.1019 z m 0.4745,6.0147 v 3.7239 h 2183.1301 v -3.7239 z m -0.084,8.8876 v 3.7236 h 2183.1295 v -3.7236 z m -0.3926,11.9815 v 2.1019 h 2183.1295 v -2.1019 z m -0.028,9.3365 v 2.1019 h 2183.1301 v -2.1019 z m 0.4728,8.0871 v 3.7237 h 2183.1301 v -3.7237 z m -0.4247,10.2349 v 2.1019 h 2183.1294 v -2.1019 z m -0.023,8.2711 v 2.102 h 2183.13 v -2.102 z m 0.4502,9.0798 v 3.7237 h 2183.13 v -3.7237 z m -0.4711,10.081 v 2.1019 h 2183.13 v -2.1019 z m 0.023,9.5503 v 2.1019 h 2183.1301 v -2.1019 z m 0.3983,10.6106 v 3.7237 h 2183.1295 v -3.7237 z m 0.025,11.3394 v 2.1019 h 2183.13 v -2.1019 z m -0.4824,10.5278 v 2.1017 h 2183.13 v -2.1017 z m 0.501,8.4753 v 3.7239 H 3193.944 v -3.7239 z m -0.4598,10.5628 v 2.1018 H 3193.491 v -2.1018 z m -0.027,7.9297 v 2.1019 h 2183.13 v -2.1019 z m 0.4881,7.7243 v 3.7236 h 2183.13 v -3.7236 z m -0.4226,8.7786 v 2.1016 h 2183.1301 v -2.1016 z m -0.045,5.4192 v 2.1019 h 2183.1295 v -2.1019 z m 0.4655,5.2762 v 3.7239 h 2183.13 v -3.7239 z m -0.4209,10.2148 v 2.102 h 2183.1301 v -2.102 z m 0,5.1876 v 2.1019 h 2183.1301 v -2.1019 z m 0.4209,8.2956 v 3.7237 h 2183.13 v -3.7237 z m 0,11.0964 v 3.7237 h 2183.13 v -3.7237 z m -0.4655,6.898 v 2.1016 h 2183.1295 v -2.1016 z m 0.045,5.4183 v 2.1019 h 2183.1301 v -2.1019 z m 0.4226,7.1546 v 3.7237 h 2183.13 v -3.7237 z m -0.4875,9.3387 v 2.1019 h 2183.1294 v -2.1019 z m 0.026,7.9087 v 2.1019 h 2183.13 v -2.1019 z m 0.4586,8.8748 v 3.7237 h 2183.1295 v -3.7237 z m -0.4185,9.8921 v 2.1019 h 2183.13 v -2.1019 z m -0.02,5.9309 v 2.1018 h 2183.1295 v -2.1018 z m 0.4745,6.0149 v 3.7237 h 2183.1301 v -3.7237 z m -0.084,8.8873 v 3.724 h 2183.1295 v -3.724 z m -0.3926,11.9816 v 2.1019 h 2183.1295 v -2.1019 z m -0.028,9.3368 v 2.1019 h 2183.1301 v -2.1019 z m 0.4728,8.0871 v 3.7236 h 2183.1301 v -3.7236 z m -0.4247,10.2349 v 2.1019 h 2183.1294 v -2.1019 z m -0.023,8.2711 v 2.1019 h 2183.13 v -2.1019 z m 0.4502,9.0798 v 3.7237 h 2183.13 v -3.7237 z m -0.4711,10.0809 v 2.1019 h 2183.13 v -2.1019 z m 0.023,9.5504 v 2.1019 H 3193.501 v -2.1019 z m 0.3983,10.6106 v 3.7237 h 2183.1295 v -3.7237 z m 0.025,11.3393 v 2.1019 h 2183.13 v -2.1019 z m -0.4824,10.5279 v 2.1019 h 2183.13 v -2.1019 z m 0.501,8.4753 v 3.7239 h 2183.1301 v -3.7239 z m -0.4598,10.5627 v 2.1019 h 2183.138 v -2.1019 z m -0.027,7.9298 v 2.1019 h 2183.13 v -2.1019 z m 0.4881,7.7239 v 3.724 h 2183.13 v -3.724 z m -0.4226,8.7789 v 2.102 h 2183.1301 v -2.102 z m -0.045,5.4193 v 2.1019 H 3193.476 v -2.1019 z m 0.4655,5.2761 v 3.724 h 2183.13 v -3.724 z m -0.4209,10.2149 v 2.102 h 2183.1301 v -2.102 z m 0,5.1876 v 2.1019 h 2183.1301 v -2.1019 z m 0.4209,8.2956 v 3.7236 h 2183.13 v -3.7236 z"
       id="rect945"
       inkscape:connector-curvature="0" />
  </g>
</svg>
