<?xml version="1.0" encoding="UTF-8" standalone="no"?>
<!-- Created with Inkscape (http://www.inkscape.org/) -->

<svg
   xmlns:dc="http://purl.org/dc/elements/1.1/"
   xmlns:cc="http://creativecommons.org/ns#"
   xmlns:rdf="http://www.w3.org/1999/02/22-rdf-syntax-ns#"
   xmlns:svg="http://www.w3.org/2000/svg"
   xmlns="http://www.w3.org/2000/svg"
   xmlns:sodipodi="http://sodipodi.sourceforge.net/DTD/sodipodi-0.dtd"
   xmlns:inkscape="http://www.inkscape.org/namespaces/inkscape"
   width="103.36316mm"
   height="86.857346mm"
   viewBox="0 0 103.36316 86.857345"
   version="1.1"
   id="svg1493"
   inkscape:version="0.92.3 (2405546, 2018-03-11)"
   sodipodi:docname="logo_header.svg">
  <defs
     id="defs1487" />
  <sodipodi:namedview
     id="base"
     pagecolor="#ffffff"
     bordercolor="#666666"
     borderopacity="1.0"
     inkscape:pageopacity="0.0"
     inkscape:pageshadow="2"
     inkscape:zoom="1.4"
     inkscape:cx="662.22839"
     inkscape:cy="225.75352"
     inkscape:document-units="mm"
     inkscape:current-layer="layer1"
     showgrid="false"
     fit-margin-top="0"
     fit-margin-left="0"
     fit-margin-right="0"
     fit-margin-bottom="0"
     inkscape:window-width="2560"
     inkscape:window-height="1403"
     inkscape:window-x="0"
     inkscape:window-y="0"
     inkscape:window-maximized="1" />
  <metadata
     id="metadata1490">
    <rdf:RDF>
      <cc:Work
         rdf:about="">
        <dc:format>image/svg+xml</dc:format>
        <dc:type
           rdf:resource="http://purl.org/dc/dcmitype/StillImage" />
        <dc:title></dc:title>
      </cc:Work>
    </rdf:RDF>
  </metadata>
  <g
     inkscape:label="Layer 1"
     inkscape:groupmode="layer"
     id="layer1"
     transform="translate(124.97246,-71.183775)">
    <path
       sodipodi:type="inkscape:offset"
       inkscape:radius="20.175386"
       inkscape:original="M 195.08594 11.037109 A 166.26546 133.86501 0 0 0 28.820312 144.90234 A 166.26546 133.86501 0 0 0 33.21875 174.75586 L 32.810547 174.41992 C 33.141565 175.18468 33.432514 175.89906 33.744141 176.63867 A 166.26546 133.86501 0 0 0 37.884766 187.99609 C 39.841621 194.88961 40.579889 201.8609 39.683594 211.25 C 36.62418 243.29888 21.353959 282.89667 11.033203 298.9707 C 33.681909 286.17194 51.721279 268.29998 80.300781 261.48047 C 87.431504 259.77897 105.53242 261.89036 122.62109 265.19727 A 166.26546 133.86501 0 0 0 195.08594 278.76758 A 166.26546 133.86501 0 0 0 361.35156 144.90234 A 166.26546 133.86501 0 0 0 195.08594 11.037109 z "
       style="opacity:1;fill:#ffffff;fill-opacity:1;stroke:none;stroke-width:3.5553751;stroke-miterlimit:4;stroke-dasharray:none;stroke-dashoffset:0;stroke-opacity:1"
       id="ellipse2197"
       d="M 195.08594,-9.1386719 C 147.30505,-9.1387107 99.663738,6.5139758 64.865234,34.53125 30.066731,62.548524 8.6444459,103.29617 8.6445312,144.90234 a 20.177404,20.177404 0 0 0 0,0.13868 c 0.071694,10.40818 1.4988298,20.79153 4.0781248,30.9375 a 20.177404,20.177404 0 0 0 1.572266,6.45507 c 0.223563,0.51651 0.485543,1.15646 0.857422,2.03907 l -0.703125,-1.9375 c 1.151568,3.76774 2.572085,7.46429 4.058593,11.13672 1.308534,4.65729 1.79024,8.34365 1.091797,15.66015 -2.605304,27.29186 -18.4729495,67.7271 -25.5429684,78.73828 a 20.177404,20.177404 0 0 0 26.9023434,28.46485 c 25.657538,-14.49905 41.322156,-30.01235 64.025391,-35.42969 -2.016012,0.48105 4.140693,-0.20531 10.804687,0.4375 6.383338,0.61573 14.278728,1.82502 21.986328,3.28906 24.24768,9.16836 50.71897,14.04969 77.26367,14.11133 a 20.177404,20.177404 0 0 0 0.0469,0 c 47.78088,4e-5 95.4222,-15.65265 130.2207,-43.66992 34.7985,-28.01728 56.22079,-68.76492 56.2207,-110.3711 9e-5,-41.60617 -21.4222,-82.353816 -56.2207,-110.37109 C 290.50814,6.513976 242.86682,-9.1387089 195.08594,-9.1386719 Z"
       transform="matrix(0.26458333,0,0,0.26458333,-122.55508,73.601715)" />
    <g
       id="g2082">
      <ellipse
         ry="35.418449"
         rx="43.99107"
         cy="111.9404"
         cx="-70.938766"
         id="path2051"
         style="opacity:1;fill:#ff7f2a;fill-opacity:1;stroke:none;stroke-width:0.94069302;stroke-miterlimit:4;stroke-dasharray:none;stroke-dashoffset:0;stroke-opacity:1" />
      <path
         inkscape:transform-center-y="29.432843"
         inkscape:transform-center-x="35.83744"
         sodipodi:nodetypes="cscscc"
         inkscape:connector-curvature="0"
         id="path2066"
         d="m -113.87394,119.75022 c 1.44491,3.33819 2.20562,5.68949 1.8185,9.74475 -0.80947,8.4796 -4.84953,18.95649 -7.58023,23.20941 5.99247,-3.38634 10.76526,-8.1149 18.32692,-9.91923 3.164178,-0.75502 14.497785,1.32076 19.027287,2.98324 z"
         style="opacity:1;fill:#ff7f2a;fill-opacity:1;stroke:none;stroke-width:0.26458332px;stroke-linecap:butt;stroke-linejoin:miter;stroke-opacity:1" />
      <path
         sodipodi:nodetypes="cccccccccsccsccscscccsssccscccsscscsscsccc"
         inkscape:connector-curvature="0"
         id="path2064"
         d="m -92.372735,123.64478 c -1.375228,-0.14101 -2.944749,-0.4158 -4.303662,-0.75346 -6.105903,-1.5172 -9.898583,-4.63359 -11.071653,-9.09742 -0.24686,-0.93938 -0.28755,-1.32228 -0.29523,-2.77831 -0.0125,-2.3605 0.25821,-3.31651 1.16411,-4.11191 1.17758,-1.03392 3.29569,-0.88041 4.37773,0.31729 0.36573,0.40482 0.71423,1.00477 0.86307,1.48581 0.071,0.22959 0.0336,0.21778 -0.42888,-0.13518 -0.62892,-0.48008 -1.53716,-0.76082 -2.13473,-0.65986 -1.80165,0.30438 -1.70657,2.60425 0.2126,5.14225 1.83836,2.43114 4.516903,3.96388 6.931646,3.96646 1.850324,0.002 3.021435,-0.57806 4.862622,-2.40847 1.245842,-1.23854 2.059828,-2.44021 3.469349,-5.12173 1.637882,-3.11597 2.936345,-4.88267 4.769819,-6.48991 3.436042,-3.01205 6.795725,-3.645746 10.214259,-1.92661 0.848804,0.42685 1.827358,1.06693 2.400651,1.5703 l 0.377663,0.33158 0.377662,-0.33158 c 1.04835,-0.92047 2.89954,-1.92358 4.198384,-2.27499 0.980708,-0.26534 2.845344,-0.26087 3.90016,0.01 2.556223,0.65483 5.542595,3.0794 7.599255,6.16967 0.379041,0.56955 1.13907,1.89355 1.688953,2.94221 1.383398,2.63827 2.226601,3.88141 3.474339,5.12222 1.841769,1.83153 3.000186,2.4054 4.855609,2.4054 3.01386,0 6.51433,-2.50363 8.030514,-5.74364 0.385844,-0.82453 0.522001,-1.91243 0.304937,-2.43646 -0.467997,-1.12985 -2.019455,-1.25245 -3.316508,-0.26208 -0.482654,0.36854 -0.515161,0.37872 -0.442348,0.13864 0.167597,-0.55262 0.664997,-1.33395 1.069741,-1.6804 0.656452,-0.56191 1.130629,-0.74559 2.044234,-0.79186 1.019631,-0.0517 1.752501,0.22284 2.344516,0.87814 0.563373,0.62359 0.783924,1.20493 0.923751,2.4349 0.309276,2.72054 -0.329634,5.46448 -1.765595,7.5827 -2.578075,3.803 -8.65663,6.35814 -15.675976,6.58942 -2.095454,0.0691 -3.169717,-0.0252 -5.338721,-0.46843 -5.53761,-1.13156 -9.72481,-3.82085 -13.210003,-8.48431 -0.53741,-0.71909 -1.01288,-1.30744 -1.056603,-1.30744 -0.04371,0 -0.537512,0.60845 -1.097313,1.35209 -2.326565,3.09063 -4.902514,5.2717 -7.952129,6.73307 -1.969105,0.94361 -4.988157,1.78616 -7.514934,2.09728 -1.054342,0.12982 -3.563213,0.12735 -4.851289,-0.004 z"
         style="fill:#ffffff;stroke-width:0.10895351" />
    </g>
  </g>
</svg>
